<svg xmlns="http://www.w3.org/2000/svg" version="1.1" xmlns:xlink="http://www.w3.org/1999/xlink" xmlns:svgjs="http://svgjs.dev/svgjs" width="1000" height="1000"><g clip-path="url(#SvgjsClipPath1098)"><rect width="1000" height="1000" fill="#000000"></rect><g transform="matrix(29.166666666666668,0,0,29.166666666666668,150,150)"><svg xmlns="http://www.w3.org/2000/svg" version="1.1" xmlns:xlink="http://www.w3.org/1999/xlink" xmlns:svgjs="http://svgjs.dev/svgjs" width="24" height="24"><svg xmlns="http://www.w3.org/2000/svg" width="24" height="24" viewBox="0 0 24 24" fill="none" stroke="white" stroke-width="2" stroke-linecap="round" stroke-linejoin="round" class="icon icon-tabler icons-tabler-outline icon-tabler-zoom-scan"><path stroke="none" d="M0 0h24v24H0z" fill="none"></path><path d="M4 8v-2a2 2 0 0 1 2 -2h2"></path><path d="M4 16v2a2 2 0 0 0 2 2h2"></path><path d="M16 4h2a2 2 0 0 1 2 2v2"></path><path d="M16 20h2a2 2 0 0 0 2 -2v-2"></path><path d="M8 11a3 3 0 1 0 6 0a3 3 0 0 0 -6 0"></path><path d="M16 16l-2.5 -2.5"></path></svg></svg></g></g><defs><clipPath id="SvgjsClipPath1098"><rect width="1000" height="1000" x="0" y="0" rx="350" ry="350"></rect></clipPath></defs></svg>