<svg xmlns="http://www.w3.org/2000/svg" version="1" xmlns:xlink="http://www.w3.org/1999/xlink" width="1200" zoomAndPan="magnify" viewBox="0 0 900 899.99999" height="1200" preserveAspectRatio="xMidYMid meet"><rect x="-90" width="1080" fill="#ffffff" y="-89.999999" height="1079.999988" fill-opacity="1"></rect><rect x="-90" width="1080" fill="#000000" y="-89.999999" height="1079.999988" fill-opacity="1"></rect><path stroke-linecap="round" transform="matrix(24.999998, 0, 0, 24.999998, 149.999997, 150.000012)" fill="none" stroke-linejoin="round" d="M 4 8 L 4 6 C 4 5.934531 4.003282 5.869219 4.009688 5.803906 C 4.016094 5.73875 4.025625 5.674062 4.038438 5.609844 C 4.05125 5.545625 4.067032 5.482187 4.086094 5.419375 C 4.105157 5.356719 4.127188 5.295156 4.152188 5.234687 C 4.177344 5.174062 4.205313 5.115 4.236094 5.057187 C 4.267032 4.999375 4.300625 4.943281 4.337032 4.888906 C 4.373438 4.834375 4.4125 4.781875 4.453907 4.73125 C 4.495469 4.680625 4.539532 4.632031 4.585782 4.585781 C 4.632032 4.539531 4.680625 4.495469 4.73125 4.453906 C 4.781875 4.4125 4.834375 4.373437 4.888907 4.337031 C 4.943282 4.300625 4.999376 4.267031 5.057188 4.236094 C 5.115001 4.205312 5.174063 4.177344 5.234688 4.152187 C 5.295157 4.127187 5.356719 4.105156 5.419376 4.086094 C 5.482188 4.067031 5.545626 4.05125 5.609844 4.038437 C 5.674063 4.025625 5.738751 4.016094 5.803907 4.009687 C 5.869219 4.003281 5.934532 4 6.000001 4 L 8.000001 4 " stroke="#ffffff" stroke-width="2" stroke-opacity="1" stroke-miterlimit="4"></path><path stroke-linecap="round" transform="matrix(24.999998, 0, 0, 24.999998, 149.999997, 150.000012)" fill="none" stroke-linejoin="round" d="M 4 16.000001 L 4 18.000001 C 4 18.06547 4.003282 18.130782 4.009688 18.196095 C 4.016094 18.261251 4.025625 18.325938 4.038438 18.390157 C 4.05125 18.454376 4.067032 18.517813 4.086094 18.580626 C 4.105157 18.643282 4.127188 18.704845 4.152188 18.765313 C 4.177344 18.825938 4.205313 18.885001 4.236094 18.942813 C 4.267032 19.000626 4.300625 19.05672 4.337032 19.111095 C 4.373438 19.165626 4.4125 19.218126 4.453907 19.268751 C 4.495469 19.319376 4.539532 19.36797 4.585782 19.41422 C 4.632032 19.46047 4.680625 19.504532 4.73125 19.546095 C 4.781875 19.587501 4.834375 19.626564 4.888907 19.66297 C 4.943282 19.699376 4.999376 19.73297 5.057188 19.763907 C 5.115001 19.794689 5.174063 19.822657 5.234688 19.847814 C 5.295157 19.872814 5.356719 19.894845 5.419376 19.913907 C 5.482188 19.93297 5.545626 19.948751 5.609844 19.961564 C 5.674063 19.974376 5.738751 19.983907 5.803907 19.990314 C 5.869219 19.99672 5.934532 20.000001 6.000001 20.000001 L 8.000001 20.000001 " stroke="#ffffff" stroke-width="2" stroke-opacity="1" stroke-miterlimit="4"></path><path stroke-linecap="round" transform="matrix(24.999998, 0, 0, 24.999998, 149.999997, 150.000012)" fill="none" stroke-linejoin="round" d="M 16.000001 4 L 18.000002 4 C 18.06547 4 18.130783 4.003281 18.196095 4.009687 C 18.261252 4.016094 18.325939 4.025625 18.390158 4.038437 C 18.454377 4.05125 18.517814 4.067031 18.580627 4.086094 C 18.643283 4.105156 18.704845 4.127187 18.765314 4.152187 C 18.825939 4.177344 18.885002 4.205312 18.942814 4.236094 C 19.000627 4.267031 19.05672 4.300625 19.111095 4.337031 C 19.165627 4.373437 19.218127 4.4125 19.268752 4.453906 C 19.319377 4.495469 19.36797 4.539531 19.41422 4.585781 C 19.46047 4.632031 19.504533 4.680625 19.546095 4.73125 C 19.587502 4.781875 19.626564 4.834375 19.66297 4.888906 C 19.699377 4.943281 19.73297 4.999375 19.763908 5.057187 C 19.794689 5.115 19.822658 5.174062 19.847814 5.234687 C 19.872814 5.295156 19.894845 5.356719 19.913908 5.419375 C 19.93297 5.482187 19.948752 5.545625 19.961564 5.609844 C 19.974377 5.674062 19.983908 5.73875 19.990314 5.803906 C 19.99672 5.869219 20.000002 5.934531 20.000002 6 L 20.000002 8 " stroke="#ffffff" stroke-width="2" stroke-opacity="1" stroke-miterlimit="4"></path><path stroke-linecap="round" transform="matrix(24.999998, 0, 0, 24.999998, 149.999997, 150.000012)" fill="none" stroke-linejoin="round" d="M 16.000001 20.000001 L 18.000002 20.000001 C 18.06547 20.000001 18.130783 19.99672 18.196095 19.990314 C 18.261252 19.983907 18.325939 19.974376 18.390158 19.961564 C 18.454377 19.948751 18.517814 19.93297 18.580627 19.913907 C 18.643283 19.894845 18.704845 19.872814 18.765314 19.847814 C 18.825939 19.822657 18.885002 19.794689 18.942814 19.763907 C 19.000627 19.73297 19.05672 19.699376 19.111095 19.66297 C 19.165627 19.626564 19.218127 19.587501 19.268752 19.546095 C 19.319377 19.504532 19.36797 19.46047 19.41422 19.41422 C 19.46047 19.36797 19.504533 19.319376 19.546095 19.268751 C 19.587502 19.218126 19.626564 19.165626 19.66297 19.111095 C 19.699377 19.05672 19.73297 19.000626 19.763908 18.942813 C 19.794689 18.885001 19.822658 18.825938 19.847814 18.765313 C 19.872814 18.704845 19.894845 18.643282 19.913908 18.580626 C 19.93297 18.517813 19.948752 18.454376 19.961564 18.390157 C 19.974377 18.325938 19.983908 18.261251 19.990314 18.196095 C 19.99672 18.130782 20.000002 18.06547 20.000002 18.000001 L 20.000002 16.000001 " stroke="#ffffff" stroke-width="2" stroke-opacity="1" stroke-miterlimit="4"></path><path stroke-linecap="round" transform="matrix(24.999998, 0, 0, 24.999998, 149.999997, 150.000012)" fill="none" stroke-linejoin="round" d="M 8.000001 11 C 8.000001 11.049063 8.001251 11.098125 8.003594 11.147188 C 8.006094 11.19625 8.009688 11.245157 8.014376 11.294063 C 8.019219 11.342969 8.025313 11.391563 8.032501 11.440157 C 8.039688 11.48875 8.048126 11.537188 8.057657 11.585313 C 8.067188 11.633438 8.07797 11.68125 8.089845 11.728907 C 8.101876 11.776563 8.115001 11.823907 8.12922 11.870782 C 8.143438 11.917813 8.158751 11.964375 8.175313 12.010625 C 8.191876 12.056875 8.209532 12.102657 8.228438 12.148125 C 8.247188 12.193438 8.267032 12.238282 8.28797 12.282657 C 8.309063 12.327032 8.331095 12.370938 8.35422 12.414219 C 8.377345 12.4575 8.401563 12.500157 8.426876 12.542344 C 8.452032 12.584375 8.478282 12.625938 8.505626 12.666719 C 8.532813 12.707501 8.561095 12.747657 8.590313 12.787032 C 8.619688 12.826563 8.649845 12.865157 8.680938 12.903126 C 8.712188 12.941094 8.74422 12.978282 8.777188 13.014688 C 8.810157 13.051094 8.843907 13.086563 8.878751 13.121251 C 8.913438 13.156094 8.948907 13.189844 8.985313 13.222813 C 9.02172 13.255782 9.058907 13.287813 9.096876 13.319063 C 9.134845 13.350157 9.173438 13.380313 9.21297 13.409688 C 9.252345 13.438907 9.292501 13.467188 9.333282 13.494376 C 9.374063 13.521719 9.415626 13.547969 9.457657 13.573126 C 9.499845 13.598438 9.542501 13.622657 9.585782 13.645782 C 9.629063 13.668907 9.67297 13.690938 9.717345 13.712032 C 9.76172 13.732969 9.806563 13.752813 9.851876 13.771563 C 9.897345 13.790469 9.943126 13.808126 9.989376 13.824688 C 10.035626 13.841094 10.082188 13.856563 10.12922 13.870782 C 10.176095 13.885001 10.223438 13.898126 10.271095 13.910157 C 10.318751 13.922032 10.366563 13.932813 10.414688 13.942344 C 10.462813 13.951876 10.511251 13.960313 10.559845 13.967501 C 10.608438 13.974688 10.657032 13.980782 10.705938 13.985626 C 10.754845 13.990313 10.803751 13.993907 10.852813 13.996407 C 10.901876 13.998751 10.950938 14.000001 11.000001 14.000001 C 11.049063 14.000001 11.098126 13.998751 11.147188 13.996407 C 11.196251 13.993907 11.245157 13.990313 11.294064 13.985626 C 11.34297 13.980782 11.391564 13.974688 11.440157 13.967501 C 11.488751 13.960313 11.537189 13.951876 11.585314 13.942344 C 11.633439 13.932813 11.681251 13.922032 11.728907 13.910157 C 11.776564 13.898126 11.823907 13.885001 11.870782 13.870782 C 11.917814 13.856563 11.964376 13.841094 12.010626 13.824688 C 12.056876 13.808126 12.102657 13.790469 12.148126 13.771563 C 12.193439 13.752813 12.238282 13.732969 12.282657 13.712032 C 12.327032 13.690938 12.370939 13.668907 12.41422 13.645782 C 12.457501 13.622657 12.500157 13.598438 12.542345 13.573126 C 12.584376 13.547969 12.625939 13.521719 12.66672 13.494376 C 12.707501 13.467188 12.747657 13.438907 12.787032 13.409688 C 12.826564 13.380313 12.865157 13.350157 12.903126 13.319063 C 12.941095 13.287813 12.978282 13.255782 13.014689 13.222813 C 13.051095 13.189844 13.086564 13.156094 13.121251 13.121251 C 13.156095 13.086563 13.189845 13.051094 13.222814 13.014688 C 13.255782 12.978282 13.287814 12.941094 13.319064 12.903126 C 13.350157 12.865157 13.380314 12.826563 13.409689 12.787032 C 13.438907 12.747657 13.467189 12.707501 13.494376 12.666719 C 13.52172 12.625938 13.54797 12.584375 13.573126 12.542344 C 13.598439 12.500157 13.622657 12.4575 13.645782 12.414219 C 13.668907 12.370938 13.690939 12.327032 13.712032 12.282657 C 13.73297 12.238282 13.752814 12.193438 13.771564 12.148125 C 13.79047 12.102657 13.808126 12.056875 13.824689 12.010625 C 13.841095 11.964375 13.856564 11.917813 13.870782 11.870782 C 13.885001 11.823907 13.898126 11.776563 13.910157 11.728907 C 13.922032 11.68125 13.932814 11.633438 13.942345 11.585313 C 13.951876 11.537188 13.960314 11.48875 13.967501 11.440157 C 13.974689 11.391563 13.980782 11.342969 13.985626 11.294063 C 13.990314 11.245157 13.993907 11.19625 13.996407 11.147188 C 13.998751 11.098125 14.000001 11.049063 14.000001 11 C 14.000001 10.950938 13.998751 10.901875 13.996407 10.852813 C 13.993907 10.80375 13.990314 10.754844 13.985626 10.705938 C 13.980782 10.657032 13.974689 10.608438 13.967501 10.559844 C 13.960314 10.51125 13.951876 10.462813 13.942345 10.414688 C 13.932814 10.366563 13.922032 10.31875 13.910157 10.271094 C 13.898126 10.223438 13.885001 10.176094 13.870782 10.129219 C 13.856564 10.082188 13.841095 10.035625 13.824689 9.989375 C 13.808126 9.943125 13.79047 9.897344 13.771564 9.851875 C 13.752814 9.806563 13.73297 9.761719 13.712032 9.717344 C 13.690939 9.672969 13.668907 9.629063 13.645782 9.585782 C 13.622657 9.5425 13.598439 9.499844 13.573126 9.457657 C 13.54797 9.415625 13.52172 9.374063 13.494376 9.333281 C 13.467189 9.2925 13.438907 9.252344 13.409689 9.212969 C 13.380314 9.173438 13.350157 9.134844 13.319064 9.096875 C 13.287814 9.058906 13.255782 9.021719 13.222814 8.985313 C 13.189845 8.948906 13.156095 8.913438 13.121251 8.87875 C 13.086564 8.843906 13.051095 8.810156 13.014689 8.777188 C 12.978282 8.744219 12.941095 8.712188 12.903126 8.680938 C 12.865157 8.649844 12.826564 8.619688 12.787032 8.590313 C 12.747657 8.561094 12.707501 8.532813 12.66672 8.505625 C 12.625939 8.478281 12.584376 8.452031 12.542345 8.426875 C 12.500157 8.401563 12.457501 8.377344 12.41422 8.354219 C 12.370939 8.331094 12.327032 8.309063 12.282657 8.287969 C 12.238282 8.267031 12.193439 8.247188 12.148126 8.228438 C 12.102657 8.209531 12.056876 8.191875 12.010626 8.175313 C 11.964376 8.15875 11.917814 8.143438 11.870782 8.129219 C 11.823907 8.115 11.776564 8.101875 11.728907 8.089844 C 11.681251 8.077969 11.633439 8.067188 11.585314 8.057656 C 11.537189 8.048125 11.488751 8.039688 11.440157 8.0325 C 11.391564 8.025313 11.34297 8.019219 11.294064 8.014375 C 11.245157 8.009688 11.196251 8.006094 11.147188 8.003594 C 11.098126 8.00125 11.049063 8 11.000001 8 C 10.950938 8 10.901876 8.00125 10.852813 8.003594 C 10.803751 8.006094 10.754845 8.009688 10.705938 8.014375 C 10.657032 8.019219 10.608438 8.025313 10.559845 8.0325 C 10.511251 8.039688 10.462813 8.048125 10.414688 8.057656 C 10.366563 8.067188 10.318751 8.077969 10.271095 8.089844 C 10.223438 8.101875 10.176095 8.115 10.12922 8.129219 C 10.082188 8.143438 10.035626 8.15875 9.989376 8.175313 C 9.943126 8.191875 9.897345 8.209531 9.851876 8.228438 C 9.806563 8.247188 9.76172 8.267031 9.717345 8.287969 C 9.67297 8.309063 9.629063 8.331094 9.585782 8.354219 C 9.542501 8.377344 9.499845 8.401563 9.457657 8.426875 C 9.415626 8.452031 9.374063 8.478281 9.333282 8.505625 C 9.292501 8.532813 9.252345 8.561094 9.21297 8.590313 C 9.173438 8.619688 9.134845 8.649844 9.096876 8.680938 C 9.058907 8.712188 9.02172 8.744219 8.985313 8.777188 C 8.948907 8.810156 8.913438 8.843906 8.878751 8.87875 C 8.843907 8.913438 8.810157 8.948906 8.777188 8.985313 C 8.74422 9.021719 8.712188 9.058906 8.680938 9.096875 C 8.649845 9.134844 8.619688 9.173438 8.590313 9.212969 C 8.561095 9.252344 8.532813 9.2925 8.505626 9.333281 C 8.478282 9.374063 8.452032 9.415625 8.426876 9.457657 C 8.401563 9.499844 8.377345 9.5425 8.35422 9.585782 C 8.331095 9.629063 8.309063 9.672969 8.28797 9.717344 C 8.267032 9.761719 8.247188 9.806563 8.228438 9.851875 C 8.209532 9.897344 8.191876 9.943125 8.175313 9.989375 C 8.158751 10.035625 8.143438 10.082188 8.12922 10.129219 C 8.115001 10.176094 8.101876 10.223438 8.089845 10.271094 C 8.07797 10.31875 8.067188 10.366563 8.057657 10.414688 C 8.048126 10.462813 8.039688 10.51125 8.032501 10.559844 C 8.025313 10.608438 8.019219 10.657032 8.014376 10.705938 C 8.009688 10.754844 8.006094 10.80375 8.003594 10.852813 C 8.001251 10.901875 8.000001 10.950938 8.000001 11 " stroke="#ffffff" stroke-width="2" stroke-opacity="1" stroke-miterlimit="4"></path><path stroke-linecap="round" transform="matrix(24.999998, 0, 0, 24.999998, 149.999997, 150.000012)" fill="none" stroke-linejoin="round" d="M 16.000001 16.000001 L 13.500001 13.500001 " stroke="#ffffff" stroke-width="2" stroke-opacity="1" stroke-miterlimit="4"></path></svg>